<?xml version="1.0" standalone="no"?>
<svg xmlns:xlink="http://www.w3.org/1999/xlink" id="wave" style="transform:rotate(180deg); transition: 0.3s" viewBox="0 0 1440 110" version="1.1" xmlns="http://www.w3.org/2000/svg"><defs><linearGradient id="sw-gradient-0" x1="0" x2="0" y1="1" y2="0"><stop stop-color="rgba(182.463, 41.785, 41.785, 1)" offset="0%"/><stop stop-color="rgba(255, 38.241, 38.241, 1)" offset="100%"/></linearGradient></defs><path style="transform:translate(0, 0px); opacity:1" fill="url(#sw-gradient-0)" d="M0,66L40,62.3C80,59,160,51,240,45.8C320,40,400,37,480,34.8C560,33,640,33,720,34.8C800,37,880,40,960,44C1040,48,1120,51,1200,44C1280,37,1360,18,1440,14.7C1520,11,1600,22,1680,23.8C1760,26,1840,18,1920,22C2000,26,2080,40,2160,55C2240,70,2320,84,2400,86.2C2480,88,2560,77,2640,62.3C2720,48,2800,29,2880,29.3C2960,29,3040,48,3120,62.3C3200,77,3280,88,3360,93.5C3440,99,3520,99,3600,82.5C3680,66,3760,33,3840,22C3920,11,4000,22,4080,34.8C4160,48,4240,62,4320,69.7C4400,77,4480,77,4560,69.7C4640,62,4720,48,4800,45.8C4880,44,4960,55,5040,64.2C5120,73,5200,81,5280,73.3C5360,66,5440,44,5520,36.7C5600,29,5680,37,5720,40.3L5760,44L5760,110L5720,110C5680,110,5600,110,5520,110C5440,110,5360,110,5280,110C5200,110,5120,110,5040,110C4960,110,4880,110,4800,110C4720,110,4640,110,4560,110C4480,110,4400,110,4320,110C4240,110,4160,110,4080,110C4000,110,3920,110,3840,110C3760,110,3680,110,3600,110C3520,110,3440,110,3360,110C3280,110,3200,110,3120,110C3040,110,2960,110,2880,110C2800,110,2720,110,2640,110C2560,110,2480,110,2400,110C2320,110,2240,110,2160,110C2080,110,2000,110,1920,110C1840,110,1760,110,1680,110C1600,110,1520,110,1440,110C1360,110,1280,110,1200,110C1120,110,1040,110,960,110C880,110,800,110,720,110C640,110,560,110,480,110C400,110,320,110,240,110C160,110,80,110,40,110L0,110Z"/></svg>